<svg width="213" height="50" viewBox="0 0 213 50" fill="none" xmlns="http://www.w3.org/2000/svg">
    <path d="M198.101 37.0542C198.101 37.4979 198.005 37.8085 197.814 37.986C197.637 38.1487 197.327 38.23 196.885 38.23H192.332C191.889 38.23 191.573 38.1487 191.381 37.986C191.204 37.8085 191.116 37.4979 191.116 37.0542V7.03793C191.116 6.68297 191.189 6.40936 191.337 6.21709C191.956 5.40364 192.862 4.52363 194.056 3.57707C194.262 3.42917 194.446 3.35522 194.608 3.35522C194.8 3.35522 194.984 3.42917 195.161 3.57707C195.795 4.06514 196.325 4.52363 196.753 4.95254C197.195 5.38145 197.57 5.80297 197.88 6.21709C198.027 6.40936 198.101 6.68297 198.101 7.03793V17.7977H198.189C198.514 17.3687 198.934 16.9398 199.449 16.5109C199.965 16.0672 200.65 15.6975 201.505 15.4017C202.375 15.1059 203.48 14.958 204.821 14.958C206.177 14.958 207.481 15.239 208.734 15.801C209.986 16.363 211.01 17.3096 211.806 18.6407C212.602 19.9718 213 21.791 213 24.0982V37.0542C213 37.4979 212.904 37.8085 212.712 37.986C212.536 38.1487 212.226 38.23 211.784 38.23H207.23C206.788 38.23 206.471 38.1487 206.28 37.986C206.103 37.8085 206.015 37.4979 206.015 37.0542V25.3184C206.015 23.6767 205.676 22.4861 204.998 21.7466C204.32 20.9923 203.399 20.6151 202.235 20.6151C201.085 20.6151 200.194 20.8666 199.56 21.3694C198.926 21.8723 198.44 22.5083 198.101 23.2773V37.0542Z" fill="white"/>
    <path d="M178.184 38.7847C176.608 38.7847 175.296 38.6516 174.25 38.3854C173.218 38.1191 172.386 37.8012 171.752 37.4314C171.133 37.0469 170.647 36.6993 170.293 36.3887C170.028 36.1373 169.998 35.8563 170.204 35.5457L172.459 32.1957C172.783 31.7225 173.152 31.6929 173.564 32.107C173.992 32.5211 174.567 32.9279 175.289 33.3272C176.026 33.7117 176.939 33.904 178.03 33.904C179.002 33.904 179.798 33.7413 180.417 33.4159C181.051 33.0758 181.368 32.5877 181.368 31.9517C181.368 31.508 181.228 31.1457 180.948 30.8646C180.668 30.5836 180.174 30.2952 179.467 29.9994C178.759 29.7036 177.772 29.3265 176.504 28.868C174.633 28.1877 173.218 27.3668 172.26 26.4055C171.302 25.4441 170.823 24.0391 170.823 22.1903C170.823 20.4895 171.288 19.1066 172.216 18.0417C173.159 16.9768 174.36 16.2004 175.819 15.7123C177.293 15.2094 178.825 14.958 180.417 14.958C182.436 14.958 183.851 15.1503 184.661 15.5348C185.487 15.9046 186.017 16.193 186.253 16.4C186.474 16.5923 186.629 16.8142 186.717 17.0656C186.909 17.6424 187.056 18.4041 187.159 19.3506C187.218 19.8979 187.078 20.2602 186.739 20.4377C186.562 20.5412 186.282 20.6522 185.899 20.7705C185.516 20.8888 185.133 20.9923 184.75 21.0811C184.367 21.1698 184.079 21.2142 183.888 21.2142C183.829 21.2142 183.762 21.1994 183.689 21.1698C183.63 21.1254 183.519 21.0293 183.357 20.8814C183.165 20.6891 182.834 20.4673 182.362 20.2159C181.905 19.9644 181.272 19.8387 180.461 19.8387C179.665 19.8387 178.995 19.9718 178.45 20.238C177.919 20.4895 177.654 20.9406 177.654 21.5913C177.654 22.3012 177.993 22.8337 178.671 23.1886C179.363 23.5436 180.498 24.0021 182.075 24.5641C183.313 24.993 184.389 25.4663 185.302 25.9839C186.231 26.4868 186.945 27.1524 187.446 27.9806C187.948 28.794 188.198 29.8959 188.198 31.2862C188.198 33.0905 187.704 34.5474 186.717 35.6566C185.744 36.7511 184.492 37.5497 182.959 38.0526C181.441 38.5407 179.85 38.7847 178.184 38.7847Z" fill="white"/>
    <path d="M58.6844 38.7847C57.1076 38.7847 55.796 38.6516 54.7497 38.3854C53.7182 38.1191 52.8855 37.8012 52.2518 37.4314C51.6329 37.0469 51.1466 36.6993 50.7929 36.3887C50.5276 36.1373 50.4982 35.8563 50.7045 35.5457L52.9592 32.1957C53.2834 31.7225 53.6518 31.6929 54.0645 32.107C54.4918 32.5211 55.0666 32.9279 55.7887 33.3272C56.5255 33.7117 57.4392 33.904 58.5297 33.904C59.5023 33.904 60.2981 33.7413 60.9171 33.4159C61.5507 33.0758 61.8676 32.5877 61.8676 31.9517C61.8676 31.508 61.7276 31.1457 61.4476 30.8646C61.1676 30.5836 60.6739 30.2952 59.9665 29.9994C59.2592 29.7036 58.2718 29.3265 57.0045 28.868C55.1329 28.1877 53.7182 27.3668 52.7603 26.4055C51.8024 25.4441 51.3234 24.0391 51.3234 22.1903C51.3234 20.4895 51.7876 19.1066 52.7161 18.0417C53.6592 16.9768 54.8603 16.2004 56.3192 15.7123C57.7929 15.2094 59.3255 14.958 60.9171 14.958C62.936 14.958 64.3507 15.1503 65.1612 15.5348C65.9865 15.9046 66.517 16.193 66.7528 16.4C66.9739 16.5923 67.1286 16.8142 67.217 17.0656C67.4086 17.6424 67.556 18.4041 67.6591 19.3506C67.7181 19.8979 67.5781 20.2602 67.2391 20.4377C67.0623 20.5412 66.7823 20.6522 66.3991 20.7705C66.016 20.8888 65.6328 20.9923 65.2497 21.0811C64.8665 21.1698 64.5791 21.2142 64.3876 21.2142C64.3286 21.2142 64.2623 21.1994 64.1886 21.1698C64.1297 21.1254 64.0191 21.0293 63.857 20.8814C63.6655 20.6891 63.3339 20.4673 62.8623 20.2159C62.4055 19.9644 61.7718 19.8387 60.9613 19.8387C60.1655 19.8387 59.495 19.9718 58.9497 20.238C58.4192 20.4895 58.1539 20.9406 58.1539 21.5913C58.1539 22.3012 58.4929 22.8337 59.1708 23.1886C59.8634 23.5436 60.9981 24.0021 62.5749 24.5641C63.8128 24.993 64.8886 25.4663 65.8023 25.9839C66.7307 26.4868 67.4454 27.1524 67.9465 27.9806C68.4475 28.794 68.6981 29.8959 68.6981 31.2862C68.6981 33.0905 68.2044 34.5474 67.217 35.6566C66.2444 36.7511 64.9918 37.5497 63.4592 38.0526C61.9413 38.5407 60.3497 38.7847 58.6844 38.7847Z" fill="white"/>
    <path d="M152.941 38.7847C150.774 38.7847 149.05 38.1783 147.768 36.9655C146.501 35.7379 145.867 34.0519 145.867 31.9073C145.867 30.7981 146.066 29.7702 146.464 28.8236C146.876 27.8623 147.584 27.0192 148.586 26.2945C149.603 25.555 151.017 24.9634 152.83 24.5197C154.657 24.076 156.986 23.8172 159.815 23.7433C159.815 22.3974 159.476 21.4286 158.798 20.837C158.135 20.2454 157.133 19.9496 155.792 19.9496C154.584 19.9496 153.596 20.1567 152.83 20.5708C152.064 20.9849 151.585 21.2659 151.393 21.4138C151.187 21.5913 150.936 21.6579 150.642 21.6135C150.244 21.5543 149.816 21.4508 149.36 21.3029C148.917 21.155 148.439 20.9849 147.923 20.7927C147.849 20.7631 147.768 20.7187 147.68 20.6596C147.591 20.5856 147.54 20.4821 147.525 20.349C147.525 20.275 147.532 20.1863 147.547 20.0827C147.562 19.9644 147.599 19.7574 147.657 19.4616C147.716 19.1658 147.805 18.8034 147.923 18.3745C148.041 17.9308 148.151 17.5906 148.254 17.354C148.387 17.1026 148.608 16.8659 148.917 16.6441C149.168 16.437 149.927 16.1042 151.194 15.6457C152.462 15.1873 154.296 14.958 156.698 14.958C163.315 14.958 166.624 18.1896 166.624 24.6528V37.2096C166.624 37.4906 166.543 37.7346 166.381 37.9417C166.233 38.1339 165.975 38.2301 165.607 38.2301H162.291C162.055 38.2301 161.842 38.2005 161.65 38.1413C161.473 38.0674 161.304 37.9343 161.142 37.742L159.771 35.9672H159.616C158.938 36.9581 158.025 37.6754 156.875 38.1191C155.741 38.5628 154.429 38.7847 152.941 38.7847ZM155.372 33.6378C156.728 33.6378 157.752 33.2902 158.445 32.5951C159.137 31.8999 159.58 31.1826 159.771 30.4431V27.9806C157.723 27.9806 156.183 28.1433 155.151 28.4687C154.134 28.7793 153.456 29.1934 153.117 29.711C152.778 30.2139 152.609 30.7611 152.609 31.3527C152.609 32.2105 152.874 32.8095 153.405 33.1497C153.935 33.4751 154.591 33.6378 155.372 33.6378Z" fill="white"/>
    <path d="M127.497 17.842C128.043 17.1765 128.883 16.5331 130.017 15.912C131.167 15.276 132.78 14.958 134.858 14.958C137.806 14.958 139.935 15.7197 141.247 17.2431C142.558 18.7664 143.214 21.0515 143.214 24.0982V37.0542C143.214 37.4979 143.118 37.8085 142.927 37.986C142.75 38.1487 142.44 38.2301 141.998 38.2301H137.445C137.003 38.2301 136.686 38.1487 136.494 37.986C136.317 37.8085 136.229 37.4979 136.229 37.0542V25.2518C136.229 23.5954 135.927 22.4122 135.323 21.7022C134.718 20.9775 133.812 20.6152 132.604 20.6152C131.528 20.6152 130.673 20.8592 130.039 21.3473C129.42 21.8206 128.978 22.4639 128.713 23.2774V37.0542C128.713 37.4979 128.617 37.8085 128.426 37.986C128.249 38.1487 127.939 38.2301 127.497 38.2301H122.944C122.502 38.2301 122.185 38.1487 121.993 37.986C121.816 37.8085 121.728 37.4979 121.728 37.0542V25.2518C121.728 23.6397 121.396 22.4639 120.733 21.7244C120.07 20.9849 119.201 20.6152 118.125 20.6152C117.108 20.6152 116.29 20.8666 115.671 21.3695C115.052 21.8723 114.573 22.5083 114.234 23.2774V37.0542C114.234 37.4979 114.138 37.8085 113.947 37.986C113.77 38.1487 113.461 38.2301 113.018 38.2301H108.465C108.023 38.2301 107.706 38.1487 107.514 37.986C107.337 37.8085 107.249 37.4979 107.249 37.0542V18.4632C107.249 18.1083 107.323 17.8347 107.47 17.6424C107.78 17.2283 108.148 16.8067 108.575 16.3778C109.017 15.9489 109.555 15.4904 110.189 15.0024C110.381 14.8545 110.565 14.7805 110.742 14.7805C110.904 14.7805 111.088 14.8545 111.294 15.0024C111.913 15.4904 112.444 15.9563 112.886 16.4C113.328 16.8437 113.718 17.3022 114.057 17.7755H114.168C114.669 17.1395 115.45 16.5109 116.511 15.8898C117.572 15.2686 119.09 14.958 121.065 14.958C122.951 14.958 124.351 15.2464 125.265 15.8232C126.178 16.3852 126.923 17.0582 127.497 17.842Z" fill="white"/>
    <path d="M95.3564 8.05843C95.3564 7.86616 95.4154 7.69608 95.5333 7.54818C95.6512 7.40028 95.8059 7.20801 95.9975 6.97137C96.4101 6.49809 96.8891 6.00262 97.4343 5.48497C97.9796 4.95253 98.5322 4.44228 99.0922 3.95421C99.4459 3.6732 100.22 2.86714 100.22 2.86714C100.22 2.86714 106.033 -3.12281 100.706 3.95421C95.3786 11.0312 102.916 5.99523 103.756 6.97137L104.221 7.54818C104.221 7.54818 104.42 7.86616 104.42 8.05843C104.42 8.2507 104.353 8.42079 104.221 8.56869C104.103 8.71659 103.941 8.91625 103.734 9.16768C103.336 9.62617 102.872 10.1216 102.342 10.6541C101.811 11.1717 101.266 11.6672 100.706 12.1405C100.5 12.318 100.337 12.4363 100.22 12.4954C100.102 12.5398 99.9912 12.562 99.888 12.562C99.7848 12.562 99.6743 12.5398 99.5564 12.4954C99.4533 12.4363 99.2838 12.318 99.048 12.1405C98.4585 11.6672 97.9059 11.1717 97.3901 10.6541C96.8743 10.1216 96.4101 9.61138 95.9975 9.12331C95.8059 8.88667 95.6512 8.7018 95.5333 8.56869C95.4154 8.42079 95.3564 8.2507 95.3564 8.05843ZM103.359 37.0542C103.359 37.4979 103.263 37.8085 103.071 37.986C102.894 38.1487 102.585 38.23 102.143 38.23H97.5891C97.147 38.23 96.8301 38.1487 96.6385 37.986C96.4617 37.8085 96.3733 37.4979 96.3733 37.0542V16.6884C96.3733 16.2447 96.4617 15.9415 96.6385 15.7788C96.8301 15.6013 97.147 15.5126 97.5891 15.5126H102.143C102.585 15.5126 102.894 15.6013 103.071 15.7788C103.263 15.9415 103.359 16.2447 103.359 16.6884V37.0542Z" fill="white"/>
    <path d="M84.2817 14.958C86.4332 14.958 88.2016 15.4461 89.5869 16.4222C90.9869 17.3836 92.0258 18.7147 92.7037 20.4155C93.3963 22.1016 93.7427 24.0391 93.7427 26.228C93.7427 28.5944 93.3374 30.7241 92.5269 32.6173C91.7311 34.5104 90.5522 36.0116 88.9901 37.1208C87.428 38.2301 85.4901 38.7847 83.1764 38.7847C81.9827 38.7847 80.9954 38.6442 80.2143 38.3632C79.448 38.0969 78.8291 37.779 78.3575 37.4092C77.9006 37.0247 77.5396 36.6771 77.2743 36.3665H77.1859V45.8173C77.1859 46.1723 77.1122 46.4459 76.9649 46.6382C76.3459 47.4516 75.4396 48.3316 74.2459 49.2782C74.0396 49.4261 73.8554 49.5 73.6933 49.5C73.5165 49.5 73.3322 49.4261 73.1407 49.2782C72.507 48.7901 71.9691 48.3316 71.527 47.9027C71.0996 47.4738 70.7312 47.0523 70.4217 46.6382C70.2744 46.4459 70.2007 46.1723 70.2007 45.8173V18.4632C70.2007 18.1083 70.2744 17.8347 70.4217 17.6424C70.7312 17.2283 71.0996 16.8067 71.527 16.3778C71.9691 15.9489 72.507 15.4904 73.1407 15.0024C73.3322 14.8545 73.5312 14.7805 73.7375 14.7805C73.9291 14.7805 74.128 14.8545 74.3343 15.0024C74.9533 15.4904 75.4838 15.9563 75.9259 16.4C76.368 16.8437 76.7585 17.3022 77.0975 17.7755H77.208C77.4585 17.4649 77.8417 17.0878 78.3575 16.6441C78.8733 16.2004 79.6027 15.8084 80.5459 15.4683C81.5038 15.1281 82.749 14.958 84.2817 14.958ZM81.5627 33.1275C83.1543 33.1275 84.3848 32.5729 85.2543 31.4636C86.1385 30.3396 86.5806 28.7201 86.5806 26.6051C86.5806 22.6118 84.9448 20.6152 81.6733 20.6152C80.288 20.6152 79.2638 20.9036 78.6006 21.4804C77.9375 22.0424 77.4659 22.6414 77.1859 23.2774V28.0915C77.1859 29.5261 77.5543 30.7241 78.2912 31.6855C79.028 32.6468 80.1185 33.1275 81.5627 33.1275Z" fill="white"/>
    <path d="M35.7218 38.7847C33.5555 38.7847 31.8313 38.1783 30.5492 36.9655C29.2819 35.7379 28.6482 34.0519 28.6482 31.9073C28.6482 30.7981 28.8471 29.7702 29.245 28.8236C29.6577 27.8623 30.365 27.0192 31.3671 26.2945C32.384 25.555 33.7987 24.9634 35.6113 24.5197C37.4387 24.076 39.7671 23.8172 42.5965 23.7433C42.5965 22.3974 42.2576 21.4286 41.5797 20.837C40.9165 20.2454 39.9144 19.9496 38.5734 19.9496C37.365 19.9496 36.3776 20.1567 35.6113 20.5708C34.845 20.9849 34.3661 21.2659 34.1745 21.4138C33.9682 21.5913 33.7176 21.6579 33.4229 21.6135C33.025 21.5543 32.5976 21.4508 32.1408 21.3029C31.6987 21.155 31.2198 20.9849 30.704 20.7927C30.6303 20.7631 30.5492 20.7187 30.4608 20.6596C30.3724 20.5856 30.3208 20.4821 30.3061 20.349C30.3061 20.275 30.3134 20.1863 30.3282 20.0827C30.3429 19.9644 30.3798 19.7574 30.4387 19.4616C30.4977 19.1658 30.5861 18.8034 30.704 18.3745C30.8219 17.9308 30.9324 17.5906 31.0355 17.354C31.1682 17.1026 31.3892 16.8659 31.6987 16.6441C31.9492 16.437 32.7082 16.1042 33.9755 15.6457C35.2429 15.1873 37.0776 14.958 39.4797 14.958C46.0965 14.958 49.4049 18.1896 49.4049 24.6528V37.2096C49.4049 37.4906 49.3239 37.7346 49.1618 37.9417C49.0144 38.1339 48.7565 38.2301 48.3881 38.2301H45.0723C44.8365 38.2301 44.6228 38.2005 44.4313 38.1413C44.2544 38.0674 44.085 37.9343 43.9228 37.742L42.5523 35.9672H42.3976C41.7197 36.9581 40.806 37.6754 39.6566 38.1191C38.5218 38.5628 37.2103 38.7847 35.7218 38.7847ZM38.1534 33.6378C39.5092 33.6378 40.5334 33.2902 41.226 32.5951C41.9186 31.8999 42.3608 31.1826 42.5523 30.4431V27.9806C40.5039 27.9806 38.9639 28.1433 37.9324 28.4687C36.9155 28.7793 36.2376 29.1934 35.8987 29.711C35.5597 30.2139 35.3903 30.7611 35.3903 31.3527C35.3903 32.2105 35.6555 32.8095 36.186 33.1497C36.7166 33.4751 37.3724 33.6378 38.1534 33.6378Z" fill="white"/>
    <path d="M7.13996 37.0543C7.13996 37.498 7.04417 37.8086 6.85259 37.9861C6.67575 38.1488 6.36628 38.2301 5.92418 38.2301H1.21578C0.77368 38.2301 0.45684 38.1488 0.265262 37.9861C0.0884206 37.8086 0 37.498 0 37.0543V9.96645C0 9.53754 0.0736838 9.21216 0.221051 8.99031C0.884206 8.01417 1.81262 6.98627 3.0063 5.9066C3.22735 5.72912 3.41893 5.64038 3.58103 5.64038C3.75787 5.64038 3.94208 5.72912 4.13366 5.9066C4.78208 6.46862 5.32734 7.00846 5.76944 7.5261C6.21154 8.02896 6.5947 8.51703 6.91891 8.99031C7.06628 9.22695 7.13996 9.55233 7.13996 9.96645V19.1732H7.64838C9.49047 19.1732 10.9863 18.9218 12.1357 18.4189C13.2852 17.9013 14.1694 17.2135 14.7883 16.3557C15.4073 15.4831 15.8273 14.5144 16.0483 13.4495C16.2841 12.3846 16.402 11.2976 16.402 10.1883V9.96645C16.402 9.53754 16.4757 9.21216 16.6231 8.99031C17.2862 8.01417 18.2146 6.98627 19.4083 5.9066C19.6294 5.72912 19.8209 5.64038 19.983 5.64038C20.1599 5.64038 20.3441 5.72912 20.5357 5.9066C21.1841 6.46862 21.7294 7.00846 22.1715 7.5261C22.6136 8.02896 22.9967 8.51703 23.3209 8.99031C23.4683 9.22695 23.542 9.55233 23.542 9.96645V10.1883C23.542 11.3863 23.4241 12.6287 23.1883 13.9154C22.9525 15.1873 22.5325 16.3927 21.9283 17.5315C21.3388 18.6704 20.4988 19.6465 19.4083 20.46C18.3325 21.2586 16.9399 21.7837 15.2304 22.0351V22.1904C16.7631 22.6785 18.1262 23.4919 19.3199 24.6307C20.5283 25.7548 21.5673 27.0415 22.4367 28.4909C23.3209 29.9403 24.043 31.3972 24.603 32.8614C25.163 34.3256 25.5609 35.6345 25.7967 36.7881C25.9146 37.3353 25.9146 37.7125 25.7967 37.9195C25.6788 38.1266 25.3988 38.2301 24.9567 38.2301H19.5409C18.7894 38.2301 18.3473 37.8826 18.2146 37.1874C17.9936 36.0634 17.5589 34.7989 16.9104 33.3938C16.2768 31.974 15.481 30.6059 14.5231 29.2896C13.5652 27.9733 12.4968 26.8862 11.3178 26.0284C10.1536 25.1706 8.93048 24.7417 7.64838 24.7417H7.13996V37.0543Z" fill="white"/>
</svg>
