<svg width="37" height="36" viewBox="0 0 37 36" fill="none" xmlns="http://www.w3.org/2000/svg">
    <path d="M29.3687 7.36509C27.9553 5.97598 26.2718 4.87459 24.4163 4.12517C22.5609 3.37574 20.5706 2.99328 18.5616 3.00009C10.1441 3.00009 3.28373 9.67509 3.28373 17.8651C3.28373 20.4901 3.9929 23.0401 5.31873 25.2901L3.1604 33.0001L11.2541 30.9301C13.4896 32.1151 16.0025 32.7451 18.5616 32.7451C26.9791 32.7451 33.8396 26.0701 33.8396 17.8801C33.8396 13.9051 32.2516 10.1701 29.3687 7.36509ZM18.5616 30.2251C16.28 30.2251 14.0446 29.6251 12.0866 28.5001L11.6241 28.2301L6.81415 29.4601L8.09373 24.9001L7.7854 24.4351C6.51776 22.4655 5.84466 20.189 5.8429 17.8651C5.8429 11.0551 11.5471 5.50509 18.5462 5.50509C21.9379 5.50509 25.1291 6.79509 27.5187 9.13509C28.7019 10.281 29.6396 11.6441 30.2774 13.1452C30.9152 14.6464 31.2404 16.2558 31.2341 17.8801C31.265 24.6901 25.5608 30.2251 18.5616 30.2251ZM25.53 20.9851C25.1446 20.8051 23.2637 19.9051 22.9246 19.7701C22.57 19.6501 22.3233 19.5901 22.0612 19.9501C21.7991 20.3251 21.0746 21.1651 20.8587 21.4051C20.6429 21.6601 20.4116 21.6901 20.0262 21.4951C19.6408 21.3151 18.4075 20.9101 16.9583 19.6501C15.8175 18.6601 15.0621 17.4451 14.8308 17.0701C14.615 16.6951 14.8 16.5001 15.0004 16.3051C15.17 16.1401 15.3858 15.8701 15.5708 15.6601C15.7558 15.4501 15.8329 15.2851 15.9562 15.0451C16.0796 14.7901 16.0179 14.5801 15.9254 14.4001C15.8329 14.2201 15.0621 12.3901 14.7537 11.6401C14.4454 10.9201 14.1216 11.0101 13.8904 10.9951H13.1504C12.8883 10.9951 12.4875 11.0851 12.1329 11.4601C11.7937 11.8351 10.8071 12.7351 10.8071 14.5651C10.8071 16.3951 12.1791 18.1651 12.3642 18.4051C12.5491 18.6601 15.0621 22.4101 18.8854 24.0151C19.795 24.4051 20.5041 24.6301 21.0591 24.7951C21.9687 25.0801 22.8012 25.0351 23.4641 24.9451C24.2041 24.8401 25.7304 24.0451 26.0387 23.1751C26.3625 22.3051 26.3625 21.5701 26.2546 21.4051C26.1466 21.2401 25.9154 21.1651 25.53 20.9851Z" fill="black"/>
</svg>
