<svg width="37" height="36" viewBox="0 0 37 36" fill="none" xmlns="http://www.w3.org/2000/svg">
    <path d="M12.2794 9.303C11.9929 9.26242 11.7007 9.31854 11.4515 9.462H11.4299C10.8518 9.792 10.3307 10.2075 9.88672 10.6965C9.51672 11.112 9.3163 11.532 9.26389 11.937C9.23305 12.177 9.25464 12.42 9.3271 12.6495L9.35484 12.6645C9.77109 13.854 10.3138 14.9985 10.9767 16.0755C11.8315 17.5882 12.8833 18.9873 14.1063 20.238L14.1433 20.289L14.2018 20.331L14.2373 20.3715L14.2805 20.4075C15.5704 21.601 17.0117 22.6293 18.5694 23.4675C20.35 24.411 21.4307 24.8565 22.0798 25.0425V25.0515C22.2694 25.1085 22.4421 25.134 22.6163 25.134C23.169 25.0943 23.6922 24.8756 24.1024 24.513C24.6035 24.081 25.0274 23.5725 25.3573 23.007V22.9965C25.6672 22.4265 25.5624 21.8895 25.1153 21.525C24.2173 20.7616 23.2462 20.0835 22.2154 19.5C21.5248 19.1355 20.8233 19.356 20.5396 19.725L19.9338 20.469C19.6223 20.838 19.0581 20.787 19.0581 20.787L19.0427 20.796C14.8324 19.7505 13.7085 15.603 13.7085 15.603C13.7085 15.603 13.6561 15.039 14.0461 14.751L14.8046 14.157C15.1685 13.869 15.4213 13.188 15.0313 12.516C14.4356 11.5121 13.74 10.5676 12.9546 9.696C12.7833 9.49087 12.5431 9.35116 12.2763 9.3015L12.2794 9.303ZM19.3942 7.5C19.1897 7.5 18.9937 7.57902 18.8491 7.71967C18.7046 7.86032 18.6233 8.05109 18.6233 8.25C18.6233 8.44891 18.7046 8.63968 18.8491 8.78033C18.9937 8.92098 19.1897 9 19.3942 9C21.3428 9 22.9616 9.6195 24.2427 10.8075C24.901 11.457 25.4144 12.2265 25.7505 13.0695C26.0881 13.914 26.2423 14.8155 26.2022 15.7185C26.1936 15.9174 26.2666 16.1115 26.4051 16.2581C26.5435 16.4046 26.7362 16.4916 26.9406 16.5C27.1451 16.5084 27.3445 16.4373 27.4952 16.3026C27.6458 16.1679 27.7353 15.9804 27.7438 15.7815C27.7917 14.6707 27.6022 13.5624 27.1873 12.5265C26.7706 11.4857 26.1389 10.5392 25.3311 9.7455L25.3157 9.7305C23.7263 8.253 21.7159 7.5 19.3942 7.5Z" fill="black"/>
    <path d="M19.3402 9.9661C19.1357 9.9661 18.9397 10.0451 18.7951 10.1858C18.6505 10.3264 18.5693 10.5172 18.5693 10.7161C18.5693 10.915 18.6505 11.1058 18.7951 11.2464C18.9397 11.3871 19.1357 11.4661 19.3402 11.4661H19.3664C20.7724 11.5636 21.796 12.0196 22.5129 12.7681C23.2483 13.5391 23.6291 14.4976 23.5998 15.6826C23.5951 15.8815 23.6718 16.0741 23.813 16.218C23.9543 16.3619 24.1485 16.4453 24.3529 16.4499C24.5573 16.4544 24.7553 16.3798 24.9032 16.2424C25.051 16.105 25.1368 15.916 25.1415 15.7171C25.1785 14.1616 24.6635 12.8191 23.643 11.7481V11.7451C22.5993 10.6561 21.167 10.0801 19.4435 9.9676L19.4173 9.9646L19.3402 9.9661Z" fill="black"/>
    <path d="M19.311 12.4785C19.2078 12.4696 19.1039 12.4811 19.0054 12.5122C18.9069 12.5433 18.8158 12.5934 18.7377 12.6594C18.6595 12.7255 18.5958 12.8063 18.5504 12.8968C18.505 12.9874 18.4788 13.0859 18.4735 13.1866C18.4681 13.2872 18.4836 13.3878 18.519 13.4825C18.5545 13.5772 18.6092 13.6639 18.6799 13.7375C18.7506 13.8112 18.8358 13.8702 18.9305 13.9111C19.0251 13.952 19.1273 13.9739 19.2308 13.9755C19.8752 14.0085 20.2869 14.1975 20.5459 14.451C20.8064 14.706 21.0007 15.1155 21.0361 15.756C21.038 15.8566 21.0608 15.9559 21.103 16.0478C21.1451 16.1397 21.2059 16.2224 21.2816 16.291C21.3574 16.3596 21.4465 16.4127 21.5438 16.447C21.641 16.4814 21.7444 16.4963 21.8477 16.491C21.951 16.4856 22.0522 16.4601 22.1451 16.4159C22.2381 16.3718 22.321 16.3098 22.3888 16.2338C22.4567 16.1578 22.5081 16.0693 22.54 15.9735C22.572 15.8778 22.5837 15.7768 22.5747 15.6765C22.5254 14.7765 22.2355 13.9815 21.642 13.3965C21.0454 12.8115 20.2329 12.5265 19.311 12.4785Z" fill="black"/>
    <path fill-rule="evenodd" clip-rule="evenodd" d="M10.8949 3.57609C15.8006 2.50914 20.8879 2.50914 25.7936 3.57609L26.3162 3.68859C27.7503 4.00051 29.0673 4.69318 30.1211 5.68962C31.1749 6.68606 31.9241 7.94726 32.2855 9.33309C33.5307 14.1074 33.5307 19.1087 32.2855 23.8831C31.9241 25.2689 31.1749 26.5301 30.1211 27.5265C29.0673 28.523 27.7503 29.2157 26.3162 29.5276L25.792 29.6401C22.7195 30.3086 19.5668 30.5605 16.4233 30.3886L12.3333 33.9496C12.1791 34.0839 11.9907 34.1755 11.7877 34.2148C11.5847 34.2541 11.3746 34.2397 11.1793 34.173C10.984 34.1063 10.8106 33.9899 10.6774 33.8358C10.5441 33.6818 10.4558 33.4957 10.4216 33.2971L9.74483 29.3641C8.44702 28.9712 7.27447 28.261 6.33924 27.3014C5.404 26.3418 4.73733 25.1649 4.40295 23.8831C3.15768 19.1088 3.15768 14.1074 4.40295 9.33309C4.76435 7.94726 5.51356 6.68606 6.56735 5.68962C7.62114 4.69318 8.93823 4.00051 10.3723 3.68859L10.8949 3.57609ZM25.2895 5.77059C20.7158 4.7758 15.9727 4.7758 11.399 5.77059L10.8749 5.88459C9.85848 6.10607 8.92507 6.59732 8.1783 7.30378C7.43153 8.01025 6.90062 8.90428 6.64453 9.88659C5.49401 14.2977 5.49401 18.9185 6.64453 23.3296C6.90074 24.3121 7.43188 25.2062 8.17894 25.9127C8.926 26.6192 9.85974 27.1103 10.8764 27.3316L11.0152 27.3616C11.2396 27.4104 11.444 27.5233 11.6022 27.6857C11.7604 27.8482 11.8652 28.0529 11.9032 28.2736L12.3564 30.9106L15.2424 28.3981C15.3577 28.2975 15.4925 28.2204 15.639 28.1714C15.7854 28.1225 15.9405 28.1026 16.095 28.1131C19.1768 28.3258 22.2741 28.1009 25.2895 27.4456L25.8121 27.3316C26.8288 27.1103 27.7625 26.6192 28.5095 25.9127C29.2566 25.2062 29.7877 24.3121 30.044 23.3296C31.194 18.9196 31.194 14.2981 30.044 9.88659C29.7877 8.90408 29.2566 8.00992 28.5095 7.30344C27.7625 6.59696 26.8288 6.10582 25.8121 5.88459L25.2895 5.77059Z" fill="black"/>
</svg>
