<svg width="38" height="36" viewBox="0 0 38 36" fill="none" xmlns="http://www.w3.org/2000/svg">
    <g clip-path="url(#clip0_2_75)">
        <path d="M18.9137 0C14.0221 0.0222104 9.33874 1.92843 5.88797 5.30168C2.43719 8.67494 0.499947 13.2406 0.5 18C0.5 22.7739 2.4491 27.3523 5.91852 30.7279C9.38795 34.1036 14.0935 36 19 36C23.9065 36 28.6121 34.1036 32.0815 30.7279C35.5509 27.3523 37.5 22.7739 37.5 18C37.5 13.2261 35.5509 8.64773 32.0815 5.27208C28.6121 1.89642 23.9065 0 19 0L18.9137 0ZM26.5634 10.836C26.7176 10.833 27.0583 10.8705 27.2803 11.046C27.4285 11.1701 27.5228 11.3443 27.5439 11.5335C27.5686 11.673 27.5994 11.9925 27.5747 12.2415C27.2972 15.0885 26.0917 21.9945 25.4781 25.182C25.2191 26.532 24.7088 26.9835 24.2139 27.027C23.1409 27.1245 22.3254 26.337 21.2847 25.674C19.6567 24.6345 18.7364 23.988 17.1562 22.974C15.3293 21.804 16.5133 21.159 17.5539 20.109C17.8268 19.833 22.5597 15.6435 22.6522 15.264C22.663 15.216 22.6738 15.039 22.5659 14.946C22.458 14.853 22.2976 14.8845 22.182 14.91C22.0186 14.947 19.4178 16.6195 14.3796 19.9275C13.6396 20.4225 12.9705 20.6625 12.3724 20.6475C11.7125 20.6355 10.4422 20.286 9.49717 19.9875C8.33783 19.62 7.41746 19.4265 7.49762 18.804C7.53874 18.48 7.99764 18.1485 8.87433 17.8095C14.2671 15.5235 17.8633 14.0165 19.6629 13.2885C24.7997 11.2095 25.8681 10.848 26.5634 10.836Z" fill="black"/>
    </g>
    <defs>
        <clipPath id="clip0_2_75">
            <rect width="37" height="36" fill="white" transform="translate(0.5)"/>
        </clipPath>
    </defs>
</svg>
